<!DOCTYPE svg PUBLIC "-//W3C//DTD SVG 1.1//EN" "http://www.w3.org/Graphics/SVG/1.1/DTD/svg11.dtd">
<!-- Uploaded to: SVG Repo, www.svgrepo.com, Transformed by: SVG Repo Mixer Tools -->
<svg width="800px" height="800px" viewBox="-7.2 -7.2 86.40 86.40" id="emoji" xmlns="http://www.w3.org/2000/svg" fill="#000000">
<g id="SVGRepo_bgCarrier" stroke-width="0">
<path transform="translate(-7.2, -7.2), scale(2.7)" d="M16,30.970893275524887C19.89964230222683,31.075725076251246,23.571762697164672,29.08226532794704,26.1940099339891,26.1940099339891C28.696932694157603,23.437183628216623,29.768562367700298,19.719350182839882,29.592074858290808,16C29.424081956169417,12.459667693699114,27.683493188495046,9.325588325271088,25.270400910068723,6.729599089931275C22.744989651205838,4.012777814000038,19.708474175837598,1.4554448483244293,16.000000000000004,1.3777328229376238C12.236507934422914,1.2988678835917502,9.073022201336734,3.751858226396163,6.332755892268388,6.332755892268384C3.481386233745971,9.018295349461278,0.47340633767523244,12.083058704419415,0.47481795293944273,15.999999999999996C0.47622927556921596,19.916129295360086,3.520734280356536,22.941936772219194,6.339721282908693,25.660278717091302C9.089496695040514,28.31188010262753,12.181398549215228,30.868240048557517,16,30.970893275524887" fill="#BCCEF8" strokewidth="0"/>
</g>
<g id="SVGRepo_tracerCarrier" stroke-linecap="round" stroke-linejoin="round"/>
<g id="SVGRepo_iconCarrier"> <g id="color"> <path fill="#f1b31c" d="M20.6736,59.9844c1.2983-1.388,3.5826-3.6053,4.8424-4.9521-1.4537.886-4.2076,3.37-5.6142,4.2624A46.0024,46.0024,0,0,1,14.41,54.5235a23.6424,23.6424,0,0,0,9.05-4.15,29.78,29.78,0,0,1-10.084,2.9036,47.9434,47.9434,0,0,1-3.4267-5.45c7.1521,1.9446,14.9291-.92,19.73-5.92,1.2414.7174,2.835,1.59,4.1359,2.2474a3.2052,3.2052,0,0,1,1.6174,1.9094c1.7464,4.6657.728,8.7784-2.4318,12.475-1.3221,1.5467-3.2938,3.9123-5.0353,4.9607A33.9572,33.9572,0,0,1,20.6736,59.9844Z"/> <path fill="#a57939" d="M36.41,39.1206l-2.5918-1.5c.684-1.1936,1.3464-2.3568,2.0156-3.516Q43.0888,21.5374,50.3463,8.9716c.0989-.1713.1948-.3449.3033-.51A1.4973,1.4973,0,0,1,53.234,9.9742c-.81,1.4511-1.6532,2.8832-2.484,4.3224Q44.3857,25.322,38.02,36.347C37.4975,37.2525,36.9705,38.1556,36.41,39.1206Z"/> <path fill="#92d3f5" d="M35.17,44.2183,30.05,41.2608c.5348-.9183,1.0216-1.82,1.5756-2.6789a.9318.9318,0,0,1,1.31-.3181q1.7127.9444,3.3875,1.9568a.9384.9384,0,0,1,.377,1.2973C36.2334,42.4269,35.696,43.3,35.17,44.2183Z"/> </g> <g id="line"> <path fill="none" stroke="#000000" stroke-linecap="round" stroke-linejoin="round" stroke-width="2" d="M20.6736,59.9844c1.2983-1.388,3.5826-3.6053,4.8424-4.9521-1.4537.886-4.2076,3.37-5.6142,4.2624A46.0024,46.0024,0,0,1,14.41,54.5235a23.6424,23.6424,0,0,0,9.05-4.15,29.78,29.78,0,0,1-10.084,2.9036,47.9434,47.9434,0,0,1-3.4267-5.45c7.1521,1.9446,14.9291-.92,19.73-5.92,1.2414.7174,2.835,1.59,4.1359,2.2474a3.2052,3.2052,0,0,1,1.6174,1.9094c1.7464,4.6657.728,8.7784-2.4318,12.475-1.3221,1.5467-3.2938,3.9123-5.0353,4.9607A33.9572,33.9572,0,0,1,20.6736,59.9844Z"/> <path fill="none" stroke="#000000" stroke-miterlimit="10" stroke-width="2" d="M36.41,39.1206l-2.5918-1.5c.684-1.1936,1.3464-2.3568,2.0156-3.516Q43.0888,21.5374,50.3463,8.9716c.0989-.1713.1948-.3449.3033-.51A1.4973,1.4973,0,0,1,53.234,9.9742c-.81,1.4511-1.6532,2.8832-2.484,4.3224Q44.3857,25.322,38.02,36.347C37.4975,37.2525,36.9705,38.1556,36.41,39.1206Z"/> <path fill="none" stroke="#000000" stroke-miterlimit="10" stroke-width="2" d="M35.17,44.2183,30.05,41.2608c.5348-.9183,1.0216-1.82,1.5756-2.6789a.9318.9318,0,0,1,1.31-.3181q1.7127.9444,3.3875,1.9568a.9384.9384,0,0,1,.377,1.2973C36.2334,42.4269,35.696,43.3,35.17,44.2183Z"/> <circle cx="33.0575" cy="63.3582" r="1.4081"/> <circle cx="36.2993" cy="59.2947" r="1.1846"/> <circle cx="36.2993" cy="62.2939" r="0.9413"/> </g> </g>
</svg>