<!DOCTYPE svg PUBLIC "-//W3C//DTD SVG 1.1//EN" "http://www.w3.org/Graphics/SVG/1.1/DTD/svg11.dtd">

<!-- Uploaded to: SVG Repo, www.svgrepo.com, Transformed by: SVG Repo Mixer Tools -->
<svg height="250px" width="250px" version="1.1" id="Layer_1" xmlns="http://www.w3.org/2000/svg" xmlns:xlink="http://www.w3.org/1999/xlink" viewBox="-153.6 -153.6 819.20 819.20" xml:space="preserve" strokeWidth="1.024" transform="rotate(0)matrix(1, 0, 0, 1, 0, 0)">

<g id="SVGRepo_bgCarrier" strokeWidth="0" transform="translate(0,0), scale(1)"> 
strokeLinejoin
<path transform="translate(-153.6, -153.6), scale(25.6)" d="M16,31.67701791971922C20.381079503475625,31.521461069145246,23.104103153662788,27.255391184667218,25.561706047799127,23.62520612543575C27.706337006897193,20.457319529981916,29.29117627734902,16.888534939713427,28.55285297380977,13.134893223748932C27.78707142497353,9.241653564038252,25.212213466222455,6.005059539178932,21.723960107240636,4.114074364188333C17.99778736803712,2.094112886578043,13.495001332137631,1.0303069451643645,9.69793410861104,2.9136253339221074C5.940004881370418,4.777531554349565,4.3063234061303906,9.030682342633412,3.5083848887694113,13.148870366268229C2.74980379581633,17.063933374239213,3.317887909486371,21.029274509741228,5.547171679950251,24.335852423796034C8.051300289435247,28.050093052907553,11.523284950397851,31.835970454929033,16,31.67701791971922" fill="#BCCEF8" strokewidth="0"/>

</g>

<g id="SVGRepo_tracerCarrier" strokeLinejoin="round" stroke="#CCCCCC" strokeWidth="2.048"/>

<g id="SVGRepo_iconCarrier"> <path style="fill:#77757F;" d="M209.455,512c76.995,0,139.636-62.641,139.636-139.636V69.818c0-12.833,10.44-23.273,23.273-23.273 s23.273,10.44,23.273,23.273c0,12.853,10.42,23.273,23.273,23.273c12.853,0,23.273-10.42,23.273-23.273 C442.182,31.32,410.863,0,372.364,0s-69.818,31.322-69.818,69.818v279.273H93.091c-12.853,0-23.273,10.42-23.273,23.273 C69.818,449.359,132.459,512,209.455,512z"/> <path style="fill:#57575C;" d="M93.091,349.091c-12.853,0-23.273,10.42-23.273,23.273C69.818,449.359,132.459,512,209.455,512 V349.091H93.091z"/> </g>

</svg>