<!DOCTYPE svg PUBLIC "-//W3C//DTD SVG 1.1//EN" "http://www.w3.org/Graphics/SVG/1.1/DTD/svg11.dtd">
<!-- Uploaded to: SVG Repo, www.svgrepo.com, Transformed by: SVG Repo Mixer Tools -->
<svg width="800px" height="800px" viewBox="-3.2 -3.2 38.40 38.40" xmlns="http://www.w3.org/2000/svg" fill="#000000">
<g id="SVGRepo_bgCarrier" stroke-width="0">
<path transform="translate(-3.2, -3.2), scale(1.2)" d="M16,26.00168599328026C19.181021913506946,25.85251189440193,22.326231031251965,25.10774761566457,24.48451670879771,22.76617629279429C26.85088207400495,20.198854767080604,28.55420541139242,16.714283046910754,27.674960055990255,13.335266553454565C26.816957352568167,10.03788742204347,23.314382064841112,8.64177677132881,20.36524822276527,6.935468664078551C16.911590191512524,4.937253251024067,13.34148140391212,1.2853230032361547,9.711622369700265,2.942049300955752C6.062465950602956,4.60758323685513,6.294790802652831,9.679963009570125,5.670543951132874,13.642369062846214C5.124769876886318,17.106669267565103,4.206282845502287,20.92070193967696,6.455283229437562,23.61165762894314C8.668137374337268,26.25936391359688,12.553125453687557,26.163327257746108,16,26.00168599328026" fill="#FFD6A5" strokewidth="0"/>
</g>
<g id="SVGRepo_tracerCarrier" stroke-linecap="round" stroke-linejoin="round"/>
<g id="SVGRepo_iconCarrier"> <defs> <style>.cls-1{fill:#d50000;}.cls-2{fill:#00c853;}.cls-3{fill:#795548;}</style> </defs> <title/> <g data-name="Layer 3" id="Layer_3"> <path class="cls-1" d="M22.25,10.82a3.52,3.52,0,0,1-1.56,1,.5.5,0,0,1-.47-.13,2.56,2.56,0,0,1-.7-1.48,3.66,3.66,0,0,0-2.37.72.49.49,0,0,1-.41,0,16.56,16.56,0,0,0-1.63,4.89C14,21.78,13.42,24.49,6.67,27a.48.48,0,0,0-.32.43.49.49,0,0,0,.25.47,8.94,8.94,0,0,0,4.47,1.19c3.92,0,7.9-2.55,10.46-7.08a22,22,0,0,0,3.1-9.44A6.19,6.19,0,0,0,22.25,10.82Z"/> <path class="cls-2" d="M23.22,8.54a4.48,4.48,0,0,1-.39.61l-.08.09-.14.09a1.09,1.09,0,0,1-.62.21.87.87,0,0,1-.25,0,1,1,0,0,1-.68-.7s0,0,0,0a.51.51,0,0,1,.07-.43A.91.91,0,0,0,21.26,8c-1-.28-3.22-.55-4.81,2.21a.49.49,0,0,0,.09.61.42.42,0,0,0,.2.1.49.49,0,0,0,.41,0,3.66,3.66,0,0,1,2.37-.72,2.56,2.56,0,0,0,.7,1.48.5.5,0,0,0,.47.13,3.52,3.52,0,0,0,1.56-1,6.19,6.19,0,0,1,2.38,1.79.91.91,0,0,1,.13.16.53.53,0,0,0,.39.18.41.41,0,0,0,.16,0,.49.49,0,0,0,.34-.46A3.77,3.77,0,0,0,23.22,8.54Z"/> <path class="cls-3" d="M24.06,3.49a.51.51,0,0,0-.55-.41l-2.1.27a.51.51,0,0,0-.35.22A.49.49,0,0,0,21,4,10.55,10.55,0,0,1,21.26,8a.91.91,0,0,1-.14.33.51.51,0,0,0-.07.43s0,0,0,0a1,1,0,0,0,.68.7.87.87,0,0,0,.25,0,1.09,1.09,0,0,0,.62-.21l.14-.09.08-.09a4.48,4.48,0,0,0,.39-.61A8.11,8.11,0,0,0,24.06,3.49Z"/> </g> </g>
</svg>